<svg width="20" height="20" viewBox="0 0 20 20" fill="none" xmlns="http://www.w3.org/2000/svg">
<path d="M3.2946 7.1756L8.68123 2.95574C9.4569 2.34809 10.5431 2.34809 11.3187 2.95574L16.7054 7.1756C17.3203 7.65731 17.4911 8.37427 17.4996 9.20295C17.5001 9.24787 17.4987 9.29129 17.4953 9.33608C17.4604 9.7957 17.2195 12.6041 16.3291 15.757C16.0144 16.6346 15.2741 17.5 14.2555 17.5H5.74444C4.7259 17.5 3.98556 16.6346 3.67091 15.757C2.78051 12.6041 2.53957 9.79569 2.50472 9.33608C2.50132 9.29129 2.49986 9.24787 2.50033 9.20295C2.50889 8.37427 2.6797 7.65731 3.2946 7.1756Z" stroke="#22282B" stroke-width="1.5" stroke-linecap="round"/>
</svg>
