<svg width="48" height="48" viewBox="0 0 48 48" fill="none" xmlns="http://www.w3.org/2000/svg">
<circle cx="24" cy="24" r="24" fill="#22282B" fill-opacity="0.04"/>
<circle cx="24" cy="24" r="23.5" stroke="#22282B" stroke-opacity="0.21"/>
<path d="M19.5502 33.7502C28.6045 33.7502 33.5583 26.247 33.5583 19.7421C33.5583 19.5312 33.5536 19.3155 33.5442 19.1046C34.5079 18.4077 35.3395 17.5445 36 16.5555C35.1025 16.9548 34.1496 17.2156 33.1739 17.329C34.2013 16.7132 34.9705 15.7457 35.3391 14.606C34.3726 15.1788 33.3156 15.5829 32.2134 15.8009C31.4708 15.0118 30.489 14.4894 29.4197 14.3143C28.3504 14.1392 27.2532 14.3213 26.2977 14.8323C25.3423 15.3434 24.5818 16.155 24.1338 17.1416C23.6859 18.1282 23.5754 19.2349 23.8195 20.2905C21.8625 20.1923 19.9479 19.6839 18.2 18.7983C16.452 17.9127 14.9097 16.6697 13.673 15.1498C13.0444 16.2335 12.8521 17.5159 13.135 18.7363C13.418 19.9568 14.1551 21.0237 15.1964 21.7202C14.4146 21.6954 13.65 21.4849 12.9656 21.1062V21.1671C12.9649 22.3044 13.3581 23.4068 14.0783 24.287C14.7985 25.1672 15.8013 25.7708 16.9162 25.9952C16.1921 26.1934 15.432 26.2222 14.6948 26.0796C15.0095 27.0577 15.6216 27.9131 16.4458 28.5266C17.27 29.14 18.2651 29.4808 19.2923 29.5015C17.5484 30.8714 15.3942 31.6144 13.1766 31.6109C12.7833 31.6103 12.3904 31.5862 12 31.5387C14.2529 32.984 16.8735 33.7516 19.5502 33.7502Z" fill="#22282B"/>
</svg>
